<svg xmlns="http://www.w3.org/2000/svg" width="1467" height="919"><g data-name="Group 23"><path data-name="Rectangle 17" fill="#eee" d="M252 434h979v259H252z"/><path data-name="Line 23" fill="none" stroke="#707070" stroke-linecap="square" d="M1384.5 418.5v349"/><path data-name="Line 22" fill="none" stroke="#707070" d="M137.5 767.5h1247"/><path data-name="Line 21" fill="none" stroke="#707070" d="M81.5 529.5v223"/><path data-name="Line 20" fill="none" stroke="#707070" d="M20.5 529.5v340"/><path data-name="Line 11" fill="none" stroke="#707070" d="M483.945 207.531v114.136"/><path data-name="Line 2" fill="none" stroke="#707070" d="M100.5 24.5v107"/><g data-name="Rectangle 7" transform="rotate(-90 32 32)" fill="#fff" stroke="#707070"><rect width="64" height="200" rx="31" stroke="none"/><rect x=".5" y=".5" width="63" height="199" rx="30.5" fill="none"/></g><path data-name="Line 3" fill="none" stroke="#707070" d="M54.5 164.833h942.645"/><path data-name="Line 1" fill="none" stroke="#707070" d="M.5 406.5h1429"/><g data-name="Rectangle 1" fill="#fff" stroke="#707070"><path stroke="none" d="M0 131h200v409H0z"/><path fill="none" d="M.5 131.5h199v408H.5z"/></g><text data-name="FTA Home" transform="translate(42 164)" fill="#707070" font-size="20" font-family="SegoeUI, Segoe UI"><tspan x="0" y="0">FTA Home</tspan></text><text transform="translate(47 41)" fill="#707070" font-size="20" font-family="SegoeUI, Segoe UI"><tspan x="0" y="0">Onboarding</tspan></text><g data-name="Polygon 1" fill="#fff"><path d="M95.846 126.5h9.308l-4.654 8.462-4.654-8.462z"/><path d="M100.5 133.925l3.809-6.925H96.69l3.809 6.925m0 2.075L95 126h11l-5.5 10z" fill="#707070"/></g><text data-name="Critical sections: 1. In-Class Finance -Program core -Commercial (short) -CTA Registration 2. Custom Solutions -Lead generation 3. Sales -Program (short) -CTA filtered courses 4. Service -Program (short) -CTA filtered cours" transform="translate(16 176)" fill="#707070" font-size="16" font-family="SegoeUI, Segoe UI"><tspan x="0" y="17">Critical sections:</tspan><tspan x="0" y="38">1. In-Class Finance</tspan><tspan x="0" y="59"> -Program core</tspan><tspan x="0" y="80"> -Commercial (short)</tspan><tspan x="0" y="101"> -CTA Registration </tspan><tspan x="0" y="122">2. Custom Solutions</tspan><tspan x="0" y="143"> -Lead generation</tspan><tspan x="0" y="164">3. Sales</tspan><tspan x="0" y="185"> -Program (short)</tspan><tspan x="0" y="206"> -CTA filtered courses</tspan><tspan x="0" y="227">4. Service</tspan><tspan x="0" y="248"> -Program (short)</tspan><tspan x="0" y="269"> -CTA filtered courses</tspan><tspan x="0" y="290">5. Legal &amp; Compliance</tspan><tspan x="0" y="311"> -Program (short)</tspan><tspan x="0" y="332"> -CTA filtered courses</tspan></text><path data-name="Icon awesome-home" d="M25.562 151.963l-6.288 5.183v5.589a.546.546 0 00.546.546l3.822-.01a.546.546 0 00.543-.546v-3.268a.546.546 0 01.546-.546h2.183a.546.546 0 01.546.546v3.262a.546.546 0 00.541.547l3.82.011a.546.546 0 00.546-.546v-5.593l-6.283-5.175a.416.416 0 00-.522 0zm9.932 3.52l-2.851-2.35v-4.724a.409.409 0 00-.409-.409h-1.91a.409.409 0 00-.409.409v2.476l-3.054-2.512a1.637 1.637 0 00-2.08 0l-8.633 7.11a.409.409 0 00-.055.576l.87 1.057a.409.409 0 00.577.056l8.022-6.608a.416.416 0 01.522 0l8.022 6.607a.409.409 0 00.576-.055l.87-1.057a.409.409 0 00-.058-.577z"/><text data-name="Primary Nav" transform="translate(226 403)" fill="#707070" font-size="16" font-family="SegoeUI, Segoe UI"><tspan x="0" y="0">Primary Nav</tspan></text><text data-name="Alt Nav" transform="translate(240 162)" fill="#707070" font-size="13" font-family="SegoeUI, Segoe UI"><tspan x="0" y="0">Alt Nav</tspan></text><path data-name="Line 4" fill="none" stroke="#707070" d="M329.575 164.833v39.414"/><g data-name="Group 1"><g data-name="Rectangle 3" fill="#fff" stroke="#707070"><path stroke="none" d="M261 188h136v31H261z"/><path fill="none" d="M261.5 188.5h135v30h-135z"/></g><text data-name="Trainers &amp; Staff" transform="translate(285 210)" fill="#707070" font-size="13" font-family="SegoeUI, Segoe UI"><tspan x="0" y="0">Trainers &amp; Staff</tspan></text></g><path data-name="Line 5" fill="none" stroke="#707070" d="M552.098 164.833v39.414"/><g data-name="Group 2"><g data-name="Rectangle 4" fill="#fff" stroke="#707070"><path stroke="none" d="M484 188h136v31H484z"/><path fill="none" d="M484.5 188.5h135v30h-135z"/></g><text transform="translate(523 210)" fill="#707070" font-size="13" font-family="SegoeUI, Segoe UI"><tspan x="0" y="0">Resources</tspan></text></g><path data-name="Line 6" fill="none" stroke="#707070" d="M774.621 164.833v39.414"/><g data-name="Group 3"><g data-name="Rectangle 5" fill="#fff" stroke="#707070"><path stroke="none" d="M706 188h136v31H706z"/><path fill="none" d="M706.5 188.5h135v30h-135z"/></g><text transform="translate(756 210)" fill="#707070" font-size="13" font-family="SegoeUI, Segoe UI"><tspan x="0" y="0">About</tspan></text></g><g data-name="Group 13"><g data-name="Rectangle 6" transform="matrix(0 -1 1 0 0 919)" fill="#fff" stroke="#707070"><rect width="79" height="200" rx="31" stroke="none"/><rect x=".5" y=".5" width="78" height="199" rx="30.5" fill="none"/></g><g data-name="Group 12"><path data-name="Icon awesome-book-reader" d="M103.75 859.75a3.75 3.75 0 10-3.75 3.75 3.75 3.75 0 003.75-3.75zm-4.626 5.668c-2.317-1.418-6.071-1.809-7.96-1.918A1.081 1.081 0 0090 864.56v8.7a1.074 1.074 0 001.035 1.06 21.013 21.013 0 017.54 1.618.544.544 0 00.8-.464v-9.609a.52.52 0 00-.251-.448zm9.712-1.918c-1.889.107-5.643.5-7.96 1.916a.529.529 0 00-.25.454v9.6a.545.545 0 00.8.465 21.021 21.021 0 017.538-1.617 1.075 1.075 0 001.036-1.054v-8.704a1.081 1.081 0 00-1.164-1.06z"/><text data-name="Adobe Captivate LMS" transform="translate(100 897)" fill="#707070" font-size="16" font-family="SegoeUI, Segoe UI"><tspan x="-76.199" y="0">Adobe Captivate LMS</tspan></text></g></g><g data-name="Group 7"><path data-name="Line 7" fill="none" stroke="#707070" d="M335.5 406.5v48"/><g data-name="Rectangle 3" fill="#fff" stroke="#707070"><path stroke="none" d="M252 435h166v38H252z"/><path fill="none" d="M252.5 435.5h165v37h-165z"/></g><text data-name="Finance Institute" transform="translate(277 461)" fill="#707070" font-size="16" font-family="SegoeUI, Segoe UI"><tspan x="0" y="0">Finance Institute</tspan></text></g><g data-name="Group 6"><path data-name="Line 8" fill="none" stroke="#707070" d="M606.5 406.5v48"/><g data-name="Rectangle 8" fill="#fff" stroke="#707070"><path stroke="none" d="M523 435h166v38H523z"/><path fill="none" d="M523.5 435.5h165v37h-165z"/></g><text transform="translate(588 461)" fill="#707070" font-size="16" font-family="SegoeUI, Segoe UI"><tspan x="0" y="0">Sales</tspan></text></g><g data-name="Group 5"><path data-name="Line 9" fill="none" stroke="#707070" d="M877.5 406.5v48"/><g data-name="Rectangle 9" fill="#fff" stroke="#707070"><path stroke="none" d="M794 435h166v38H794z"/><path fill="none" d="M794.5 435.5h165v37h-165z"/></g><text transform="translate(852 461)" fill="#707070" font-size="16" font-family="SegoeUI, Segoe UI"><tspan x="0" y="0">Service</tspan></text></g><g data-name="Group 4"><path data-name="Line 10" fill="none" stroke="#707070" d="M1148.5 406.5v48"/><g data-name="Rectangle 10" fill="#fff" stroke="#707070"><path stroke="none" d="M1065 435h166v38h-166z"/><path fill="none" d="M1065.5 435.5h165v37h-165z"/></g><text transform="translate(1107 461)" fill="#707070" font-size="16" font-family="SegoeUI, Segoe UI"><tspan x="0" y="0">Compliance</tspan></text></g><path data-name="Line 6" fill="none" stroke="#707070" stroke-linecap="square" d="M997.145 164.833v36.129"/><g data-name="Group 18"><g data-name="Rectangle 5" fill="#fff" stroke="#707070"><path stroke="none" d="M929 188h136v31H929z"/><path fill="none" d="M929.5 188.5h135v30h-135z"/></g><text transform="translate(975 210)" fill="#707070" font-size="13" font-family="SegoeUI, Segoe UI"><tspan x="0" y="0">Contact</tspan></text></g><text data-name="Program Detail" transform="translate(266 500)" fill="#707070" font-size="16" font-family="SegoeUI, Segoe UI"><tspan x="0" y="0">Program Detail</tspan></text><text transform="translate(495 242)" fill="#707070" font-size="13" font-family="SegoeUI, Segoe UI"><tspan x="0" y="0">Media</tspan></text><text transform="translate(495 267)" fill="#707070" font-size="13" font-family="SegoeUI, Segoe UI"><tspan x="0" y="0">Podcast</tspan></text><text transform="translate(495 293)" fill="#707070" font-size="13" font-family="SegoeUI, Segoe UI"><tspan x="0" y="0">Articles</tspan></text><path data-name="Line 12" fill="none" stroke="#707070" d="M706.468 207.531v63.226"/><text transform="translate(718 242)" fill="#707070" font-size="13" font-family="SegoeUI, Segoe UI"><tspan x="0" y="0">Awards</tspan></text><text transform="translate(718 267)" fill="#707070" font-size="13" font-family="SegoeUI, Segoe UI"><tspan x="0" y="0">Partners</tspan></text><path data-name="Line 13" fill="none" stroke="#707070" d="M261.422 207.531v37.771"/><text data-name="Trainer Bios" transform="translate(273 242)" fill="#707070" font-size="13" font-family="SegoeUI, Segoe UI"><tspan x="0" y="0">Trainer Bios</tspan></text><path data-name="Line 14" fill="none" stroke="#707070" d="M252.5 464.5v164"/><text transform="translate(266 531)" fill="#707070" font-size="16" font-family="SegoeUI, Segoe UI"><tspan x="0" y="0">Marketing</tspan></text><text transform="translate(266 624)" fill="#707070" font-size="16" font-family="SegoeUI, Segoe UI"><tspan x="0" y="0">Testimonials</tspan></text><text data-name="Case Studies" transform="translate(266 562)" fill="#707070" font-size="16" font-family="SegoeUI, Segoe UI"><tspan x="0" y="0">Case Studies</tspan></text><text data-name="Commercial (full)" transform="translate(266 593)" fill="#707070" font-size="16" font-family="SegoeUI, Segoe UI"><tspan x="0" y="0">Commercial (full)</tspan></text><text data-name="Program Overview" transform="translate(537 500)" fill="#707070" font-size="16" font-family="SegoeUI, Segoe UI"><tspan x="0" y="0">Program Overview</tspan></text><path data-name="Line 15" fill="none" stroke="#707070" d="M523.5 464.5v164"/><text data-name="Course Cards (4)" transform="translate(537 531)" fill="#707070" font-size="16" font-family="SegoeUI, Segoe UI"><tspan x="0" y="0">Course Cards (4)</tspan></text><text transform="translate(537 562)" fill="#707070" font-size="16" font-family="SegoeUI, Segoe UI"><tspan x="0" y="0">Endorsements</tspan></text><text data-name="Resources" transform="translate(537 593)" fill="#707070" font-size="16" font-family="SegoeUI, Segoe UI"><tspan x="0" y="0">Resources</tspan></text><text data-name="Custom Solutions" transform="translate(537 624)" fill="#707070" font-size="16" font-family="SegoeUI, Segoe UI"><tspan x="0" y="0">Custom Solutions</tspan></text><text data-name="Contact" transform="translate(620 642)" fill="#707070" font-size="12" font-family="SegoeUI, Segoe UI"><tspan x="0" y="0">Contact</tspan></text><g data-name="Group 9" fill="none" stroke="#707070"><path data-name="Line 16" d="M542.5 628.5v9"/><path data-name="Line 17" stroke-linecap="square" d="M542.5 637.5h73"/></g><text data-name="Program Overview" transform="translate(808 500)" fill="#707070" font-size="16" font-family="SegoeUI, Segoe UI"><tspan x="0" y="0">Program Overview</tspan></text><path data-name="Line 18" fill="none" stroke="#707070" d="M794.5 464.5v133"/><text data-name="Course Cards (3)" transform="translate(808 531)" fill="#707070" font-size="16" font-family="SegoeUI, Segoe UI"><tspan x="0" y="0">Course Cards (3)</tspan></text><text data-name="White Pages" transform="translate(808 562)" fill="#707070" font-size="16" font-family="SegoeUI, Segoe UI"><tspan x="0" y="0">White Pages</tspan></text><text data-name="Custom Solutions" transform="translate(808 593)" fill="#707070" font-size="16" font-family="SegoeUI, Segoe UI"><tspan x="0" y="0">Custom Solutions</tspan></text><text data-name="Contact" transform="translate(891 611)" fill="#707070" font-size="12" font-family="SegoeUI, Segoe UI"><tspan x="0" y="0">Contact</tspan></text><g data-name="Group 10" fill="none" stroke="#707070"><path data-name="Line 16" d="M813.5 597.5v9"/><path data-name="Line 17" stroke-linecap="square" d="M813.5 606.5h73"/></g><text data-name="Program Overview" transform="translate(1079 500)" fill="#707070" font-size="16" font-family="SegoeUI, Segoe UI"><tspan x="0" y="0">Program Overview</tspan></text><path data-name="Line 19" fill="none" stroke="#707070" d="M1065.5 464.5v133"/><text data-name="Course Cards (2)" transform="translate(1079 531)" fill="#707070" font-size="16" font-family="SegoeUI, Segoe UI"><tspan x="0" y="0">Course Cards (2)</tspan></text><text transform="translate(1079 562)" fill="#707070" font-size="16" font-family="SegoeUI, Segoe UI"><tspan x="0" y="0">Webinar</tspan></text><text data-name="Custom Solutions" transform="translate(1079 593)" fill="#707070" font-size="16" font-family="SegoeUI, Segoe UI"><tspan x="0" y="0">Custom Solutions</tspan></text><text data-name="Contact" transform="translate(1162 611)" fill="#707070" font-size="12" font-family="SegoeUI, Segoe UI"><tspan x="0" y="0">Contact</tspan></text><g data-name="Group 11" fill="none" stroke="#707070"><path data-name="Line 16" d="M1084.5 597.5v9"/><path data-name="Line 17" stroke-linecap="square" d="M1084.5 606.5h73"/></g><text data-name="Webinar" transform="translate(495 318)" fill="#707070" font-size="13" font-family="SegoeUI, Segoe UI"><tspan x="0" y="0">Webinar</tspan></text><g data-name="Group 17"><g data-name="Rectangle 11" fill="#fff" stroke="#707070"><path stroke="none" d="M1301 388h166v38h-166z"/><path fill="none" d="M1301.5 388.5h165v37h-165z"/></g><text transform="translate(1357 414)" fill="#707070" font-size="16" font-family="SegoeUI, Segoe UI"><tspan x="0" y="0">Catalog</tspan></text></g><g data-name="Group 14"><g data-name="Rectangle 6" transform="rotate(-90 436.5 370.5)" fill="#fff" stroke="#707070"><rect width="79" height="200" rx="31" stroke="none"/><rect x=".5" y=".5" width="78" height="199" rx="30.5" fill="none"/></g><text data-name="Registration Portal" transform="translate(166 785)" fill="#707070" font-size="16" font-family="SegoeUI, Segoe UI"><tspan x="-64.766" y="0">Registration Portal</tspan></text><path data-name="Icon awesome-medal" d="M164.74 748.107l-2.7-4.5a1.25 1.25 0 00-1.072-.607h-4.342a.625.625 0 00-.512.984l4.347 6.209a8.084 8.084 0 014.279-2.086zM175.374 743h-4.342a1.25 1.25 0 00-1.072.607l-2.7 4.5a8.087 8.087 0 014.28 2.085l4.346-6.208a.625.625 0 00-.512-.984zM166 749.25a6.875 6.875 0 106.875 6.875A6.875 6.875 0 00166 749.25zm3.614 6.143l-1.482 1.444.35 2.04a.449.449 0 01-.65.472l-1.832-.963-1.832.963a.448.448 0 01-.65-.472l.35-2.04-1.482-1.444a.449.449 0 01.248-.765l2.048-.3.918-1.855a.449.449 0 01.805 0l.915 1.856 2.048.3a.449.449 0 01.248.765z"/></g><text data-name="Program Pages" transform="translate(1112 683)" fill="#8b8b8b" font-size="16" font-family="SegoeUI, Segoe UI"><tspan x="0" y="0">Program Pages</tspan></text></g></svg>