<svg xmlns="http://www.w3.org/2000/svg" width="1415.5" height="598" viewBox="0 0 1415.5 598">
  <g id="Group_24" data-name="Group 24" transform="translate(-252.5 -223.5)">
    <line id="Line_34" data-name="Line 34" y1="338.5" transform="translate(1568.5 224.5)" fill="none" stroke="#FFFFFF" stroke-linecap="square" stroke-width="1"/>
    <line id="Line_33" data-name="Line 33" y1="196" transform="translate(1189.5 367)" fill="none" stroke="#FFFFFF" stroke-linecap="square" stroke-width="1"/>
    <line id="Line_29" data-name="Line 29" y2="196" transform="translate(958 367)" fill="none" stroke="#FFFFFF" stroke-linecap="square" stroke-width="1"/>
    <line id="Line_32" data-name="Line 32" x2="378" transform="translate(1190 563)" fill="none" stroke="#FFFFFF" stroke-width="1"/>
    <line id="Line_31" data-name="Line 31" y2="282" transform="translate(392 367)" fill="none" stroke="#FFFFFF" stroke-linecap="square" stroke-width="1"/>
    <line id="Line_30" data-name="Line 30" y2="393" transform="translate(292 369)" fill="none" stroke="#FFFFFF" stroke-linecap="square" stroke-width="1"/>
    <line id="Line_27" data-name="Line 27" x2="566" transform="translate(392 563)" fill="none" stroke="#FFFFFF" stroke-width="1"/>
    <g id="Rectangle_15" data-name="Rectangle 15" transform="translate(315 524)" fill="#fff" stroke="#FFFFFF" stroke-width="1">
      <rect width="160" height="72" stroke="none"/>
      <rect x="0.5" y="0.5" width="159" height="71" fill="none"/>
    </g>
    <g id="Rectangle_14" data-name="Rectangle 14" transform="translate(312 527)" fill="#fff" stroke="#FFFFFF" stroke-width="1">
      <rect width="160" height="72" stroke="none"/>
      <rect x="0.5" y="0.5" width="159" height="71" fill="none"/>
    </g>
    <line id="Line_25" data-name="Line 25" y2="243" transform="translate(618 224)" fill="none" stroke="#FFFFFF" stroke-linecap="square" stroke-width="1"/>
    <path id="Path_1" data-name="Path 1" d="M1159.5-960v-108h247v108" transform="translate(30 1327)" fill="none" stroke="#FFFFFF" stroke-width="1" stroke-dasharray="8 4"/>
    <line id="Line_1" data-name="Line 1" x2="1274" transform="translate(253 367)" fill="none" stroke="#FFFFFF" stroke-width="1"/>
    <g id="Group_16" data-name="Group 16" transform="translate(-19 234)">
      <g id="Rectangle_12" data-name="Rectangle 12" transform="translate(294 93)" fill="#fff" stroke="#FFFFFF" stroke-width="1">
        <rect width="200" height="79" rx="31" stroke="none"/>
        <rect x="0.5" y="0.5" width="199" height="78" rx="30.5" fill="none"/>
      </g>
      <g id="Group_15" data-name="Group 15" transform="translate(140 -80)">
        <text id="FTA_Home" data-name="FTA Home" transform="translate(222 221)" fill="#707070" font-size="20" font-family="SegoeUI, Segoe UI"><tspan x="0" y="0">FTA Home</tspan></text>
        <path id="Icon_awesome-home" data-name="Icon awesome-home" d="M9.561,6.217,3.273,11.4v5.589a.546.546,0,0,0,.546.546l3.822-.01a.546.546,0,0,0,.543-.546V13.711a.546.546,0,0,1,.546-.546h2.183a.546.546,0,0,1,.546.546v3.262A.546.546,0,0,0,12,17.52l3.82.011a.546.546,0,0,0,.546-.546V11.392L10.083,6.217A.416.416,0,0,0,9.561,6.217Zm9.932,3.52-2.851-2.35V2.663a.409.409,0,0,0-.409-.409h-1.91a.409.409,0,0,0-.409.409V5.139L10.86,2.627a1.637,1.637,0,0,0-2.08,0L.147,9.737a.409.409,0,0,0-.055.576l.87,1.057a.409.409,0,0,0,.577.056L9.561,4.818a.416.416,0,0,1,.522,0l8.022,6.607a.409.409,0,0,0,.576-.055l.87-1.057a.409.409,0,0,0-.058-.577Z" transform="translate(196.001 202.746)"/>
      </g>
    </g>
    <g id="Group_14" data-name="Group 14" transform="translate(1283 -455)">
      <g id="Rectangle_6" data-name="Rectangle 6" transform="translate(185 856) rotate(-90)" fill="#fff" stroke="#FFFFFF" stroke-width="1">
        <rect width="79" height="200" rx="31" stroke="none"/>
        <rect x="0.5" y="0.5" width="78" height="199" rx="30.5" fill="none"/>
      </g>
      <text id="Registration_Portal" data-name="Registration Portal" transform="translate(285 834)" fill="#707070" font-size="16" font-family="SegoeUI, Segoe UI"><tspan x="-64.766" y="0">Registration Portal</tspan></text>
      <path id="Icon_awesome-medal" data-name="Icon awesome-medal" d="M8.74,5.107,6.04.607A1.25,1.25,0,0,0,4.968,0H.626A.625.625,0,0,0,.114.984L4.461,7.193A8.084,8.084,0,0,1,8.74,5.107ZM19.374,0H15.032A1.25,1.25,0,0,0,13.96.607l-2.7,4.5a8.087,8.087,0,0,1,4.28,2.085L19.886.984A.625.625,0,0,0,19.374,0ZM10,6.25a6.875,6.875,0,1,0,6.875,6.875A6.875,6.875,0,0,0,10,6.25Zm3.614,6.143-1.482,1.444.35,2.04a.449.449,0,0,1-.65.472L10,15.386l-1.832.963a.448.448,0,0,1-.65-.472l.35-2.04L6.386,12.393a.449.449,0,0,1,.248-.765l2.048-.3L9.6,9.473a.449.449,0,0,1,.805,0l.915,1.856,2.048.3a.449.449,0,0,1,.248.765Z" transform="translate(275 792)"/>
    </g>
    <g id="Rectangle_13" data-name="Rectangle 13" transform="translate(1243.627 366.924) rotate(-45)" fill="#fff" stroke="#FFFFFF" stroke-width="1">
      <rect width="98" height="98" stroke="none"/>
      <rect x="0.5" y="0.5" width="97" height="97" fill="none"/>
    </g>
    <text id="Login" transform="translate(1288.924 374.924)" fill="#707070" font-size="20" font-family="SegoeUI, Segoe UI"><tspan x="0" y="0">Login</tspan></text>
    <g id="Group_13" data-name="Group 13" transform="translate(1094 -91)">
      <g id="Rectangle_6-2" data-name="Rectangle 6" transform="translate(119 694) rotate(-90)" fill="#fff" stroke="#FFFFFF" stroke-width="1">
        <rect width="79" height="200" rx="31" stroke="none"/>
        <rect x="0.5" y="0.5" width="78" height="199" rx="30.5" fill="none"/>
      </g>
      <g id="Group_12" data-name="Group 12" transform="translate(5)">
        <path id="Icon_awesome-book-reader" data-name="Icon awesome-book-reader" d="M13.75,3.75A3.75,3.75,0,1,0,10,7.5,3.75,3.75,0,0,0,13.75,3.75ZM9.124,9.418C6.807,8,3.053,7.609,1.164,7.5A1.081,1.081,0,0,0,0,8.56v8.7A1.074,1.074,0,0,0,1.035,18.32a21.013,21.013,0,0,1,7.54,1.618.544.544,0,0,0,.8-.464V9.865a.52.52,0,0,0-.251-.448ZM18.836,7.5c-1.889.107-5.643.5-7.96,1.916a.529.529,0,0,0-.25.454v9.6a.545.545,0,0,0,.8.465,21.021,21.021,0,0,1,7.538-1.617A1.075,1.075,0,0,0,20,17.264V8.56A1.081,1.081,0,0,0,18.836,7.5Z" transform="translate(204 631)"/>
        <text id="Adobe_Captivate_LMS" data-name="Adobe Captivate LMS" transform="translate(214 672)" fill="#707070" font-size="16" font-family="SegoeUI, Segoe UI"><tspan x="-76.199" y="0">Adobe Captivate LMS</tspan></text>
      </g>
    </g>
    <g id="Group_17" data-name="Group 17" transform="translate(-885 -91)">
      <g id="Rectangle_11" data-name="Rectangle 11" transform="translate(1420 437)" fill="#fff" stroke="#FFFFFF" stroke-width="1">
        <rect width="166" height="41" stroke="none"/>
        <rect x="0.5" y="0.5" width="165" height="40" fill="none"/>
      </g>
      <text id="Course_Catalog" data-name="Course Catalog" transform="translate(1449 464)" fill="#707070" font-size="16" font-family="SegoeUI, Segoe UI"><tspan x="0" y="0">Course Catalog</tspan></text>
    </g>
    <g id="Group_20" data-name="Group 20" transform="translate(-540 -91)">
      <g id="Rectangle_11-2" data-name="Rectangle 11" transform="translate(1420 437)" fill="#fff" stroke="#FFFFFF" stroke-width="1">
        <rect width="166" height="41" stroke="none"/>
        <rect x="0.5" y="0.5" width="165" height="40" fill="none"/>
      </g>
      <text id="Course_Detail" data-name="Course Detail" transform="translate(1456 464)" fill="#707070" font-size="16" font-family="SegoeUI, Segoe UI"><tspan x="0" y="0">Course Detail</tspan></text>
    </g>
    <text id="User_input:_Select_course" data-name="User input: Select course" transform="translate(723 366)" fill="#FFFFFF" font-size="12" font-family="SegoeUI, Segoe UI"><tspan x="0" y="0">User input: Select course</tspan></text>
    <g id="Polygon_1" data-name="Polygon 1" transform="translate(539 361) rotate(90)" fill="#fff">
      <path d="M 10.15436172485352 9.5 L 0.8456379771232605 9.5 L 5.5 1.037523627281189 L 10.15436172485352 9.5 Z" stroke="none"/>
      <path d="M 5.5 2.075047492980957 L 1.691275596618652 9 L 9.308724403381348 9 L 5.5 2.075047492980957 M 5.5 0 L 11 10 L 0 10 L 5.5 0 Z" stroke="none" fill="#707070"/>
    </g>
    <g id="Polygon_2" data-name="Polygon 2" transform="translate(885 361) rotate(90)" fill="#fff">
      <path d="M 10.15436172485352 9.5 L 0.8456379771232605 9.5 L 5.5 1.037523627281189 L 10.15436172485352 9.5 Z" stroke="none"/>
      <path d="M 5.5 2.075047492980957 L 1.691275596618652 9 L 9.308724403381348 9 L 5.5 2.075047492980957 M 5.5 0 L 11 10 L 0 10 L 5.5 0 Z" stroke="none" fill="#707070"/>
    </g>
    <text id="CTA:_Registration" data-name="CTA: Registration" transform="translate(1068 366)" fill="#FFFFFF" font-size="12" font-family="SegoeUI, Segoe UI"><tspan x="0" y="0">CTA: Registration</tspan></text>
    <g id="Ellipse_1" data-name="Ellipse 1" transform="translate(1180 357)" fill="#fff" stroke="#FFFFFF" stroke-width="1">
      <circle cx="9.5" cy="9.5" r="9.5" stroke="none"/>
      <circle cx="9.5" cy="9.5" r="9" fill="none"/>
    </g>
    <text id="Guest_Login" data-name="Guest Login" transform="translate(1195 272)" fill="#FFFFFF" font-size="12" font-family="SegoeUI, Segoe UI"><tspan x="0" y="0">Guest Login</tspan></text>
    <g id="Ellipse_2" data-name="Ellipse 2" transform="translate(1427 357)" fill="#fff" stroke="#FFFFFF" stroke-width="1">
      <circle cx="9.5" cy="9.5" r="9.5" stroke="none"/>
      <circle cx="9.5" cy="9.5" r="9" fill="none"/>
    </g>
    <g id="Polygon_3" data-name="Polygon 3" transform="translate(612.5 382.5)" fill="#fff">
      <path d="M 10.15436172485352 9.5 L 0.8456379771232605 9.5 L 5.5 1.037523627281189 L 10.15436172485352 9.5 Z" stroke="none"/>
      <path d="M 5.5 2.075047492980957 L 1.691275596618652 9 L 9.308724403381348 9 L 5.5 2.075047492980957 M 5.5 0 L 11 10 L 0 10 L 5.5 0 Z" stroke="none" fill="#707070"/>
    </g>
    <g id="Rectangle_5" data-name="Rectangle 5" transform="translate(309 530)" fill="#fff" stroke="#FFFFFF" stroke-width="1">
      <rect width="160" height="72" stroke="none"/>
      <rect x="0.5" y="0.5" width="159" height="71" fill="none"/>
    </g>
    <text id="Program_Pages" data-name="Program Pages" transform="translate(349 569)" fill="#707070" font-size="13" font-family="SegoeUI, Segoe UI"><tspan x="0" y="0">Program Pages</tspan></text>
    <line id="Line_26" data-name="Line 26" y2="98" transform="translate(618 465)" fill="none" stroke="#FFFFFF" stroke-linecap="square" stroke-width="1"/>
    <g id="Polygon_4" data-name="Polygon 4" transform="translate(612.5 514.5)" fill="#fff">
      <path d="M 10.15436172485352 9.5 L 0.8456379771232605 9.5 L 5.5 1.037523627281189 L 10.15436172485352 9.5 Z" stroke="none"/>
      <path d="M 5.5 2.075047492980957 L 1.691275596618652 9 L 9.308724403381348 9 L 5.5 2.075047492980957 M 5.5 0 L 11 10 L 0 10 L 5.5 0 Z" stroke="none" fill="#707070"/>
    </g>
    <text id="Filtered_Catalog_Results" data-name="Filtered Catalog Results" transform="translate(507 524)" fill="#FFFFFF" font-size="10" font-family="SegoeUI, Segoe UI"><tspan x="0" y="0">Filtered Catalog Results</tspan></text>
    <g id="Polygon_5" data-name="Polygon 5" transform="translate(952.5 382.5)" fill="#fff">
      <path d="M 10.15436172485352 9.5 L 0.8456379771232605 9.5 L 5.5 1.037523627281189 L 10.15436172485352 9.5 Z" stroke="none"/>
      <path d="M 5.5 2.075047492980957 L 1.691275596618652 9 L 9.308724403381348 9 L 5.5 2.075047492980957 M 5.5 0 L 11 10 L 0 10 L 5.5 0 Z" stroke="none" fill="#707070"/>
    </g>
    <g id="Group_21" data-name="Group 21" transform="translate(113 103)">
      <g id="Rectangle_5-2" data-name="Rectangle 5" transform="translate(178.5 638)" fill="#fff" stroke="#FFFFFF" stroke-width="1">
        <rect width="166" height="53" stroke="none"/>
        <rect x="0.5" y="0.5" width="165" height="52" fill="none"/>
      </g>
      <text id="Custom_Solution" data-name="Custom Solution" transform="translate(214 662)" fill="#707070" font-size="13" font-family="SegoeUI, Segoe UI"><tspan x="0" y="0">Custom Solution</tspan></text>
      <text id="Contact_Short_Form" data-name="Contact Short Form" transform="translate(214 677)" fill="#707070" font-size="10" font-family="SegoeUI, Segoe UI"><tspan x="0" y="0">Contact Short Form</tspan></text>
    </g>
    <g id="Rectangle_16" data-name="Rectangle 16" transform="translate(309 646)" fill="#fff" stroke="#FFFFFF" stroke-width="1">
      <rect width="166" height="53" stroke="none"/>
      <rect x="0.5" y="0.5" width="165" height="52" fill="none"/>
    </g>
    <text id="Custom_Solution-2" data-name="Custom Solution" transform="translate(345 670)" fill="#707070" font-size="13" font-family="SegoeUI, Segoe UI"><tspan x="0" y="0">Custom Solution</tspan></text>
    <text id="Contact_Long_Form" data-name="Contact Long Form" transform="translate(345 685)" fill="#707070" font-size="10" font-family="SegoeUI, Segoe UI"><tspan x="0" y="0">Contact Long Form</tspan></text>
    <g id="Polygon_6" data-name="Polygon 6" transform="translate(397.5 651.5) rotate(180)" fill="#fff">
      <path d="M 10.15436172485352 9.5 L 0.8456379771232605 9.5 L 5.5 1.037523627281189 L 10.15436172485352 9.5 Z" stroke="none"/>
      <path d="M 5.5 2.075047492980957 L 1.691275596618652 9 L 9.308724403381348 9 L 5.5 2.075047492980957 M 5.5 0 L 11 10 L 0 10 L 5.5 0 Z" stroke="none" fill="#707070"/>
    </g>
    <g id="Polygon_7" data-name="Polygon 7" transform="translate(297.5 747.5) rotate(180)" fill="#fff">
      <path d="M 10.15436172485352 9.5 L 0.8456379771232605 9.5 L 5.5 1.037523627281189 L 10.15436172485352 9.5 Z" stroke="none"/>
      <path d="M 5.5 2.075047492980957 L 1.691275596618652 9 L 9.308724403381348 9 L 5.5 2.075047492980957 M 5.5 0 L 11 10 L 0 10 L 5.5 0 Z" stroke="none" fill="#707070"/>
    </g>
    <g id="Group_22" data-name="Group 22" transform="translate(30 121)">
      <line id="Line_24" data-name="Line 24" x2="226" transform="translate(362 346)" fill="none" stroke="#FFFFFF" stroke-width="1"/>
      <g id="Group_2" data-name="Group 2" transform="translate(278.535 330.235)">
        <g id="Rectangle_4" data-name="Rectangle 4" transform="translate(0.465 -0.235)" fill="#fff" stroke="#FFFFFF" stroke-width="1">
          <rect width="166" height="31" stroke="none"/>
          <rect x="0.5" y="0.5" width="165" height="30" fill="none"/>
        </g>
        <text id="Resources" transform="translate(54.465 21.765)" fill="#707070" font-size="13" font-family="SegoeUI, Segoe UI"><tspan x="0" y="0">Resources</tspan></text>
      </g>
      <g id="Polygon_8" data-name="Polygon 8" transform="translate(589 340.5) rotate(90)" fill="#fff">
        <path d="M 10.15436172485352 9.5 L 0.8456379771232605 9.5 L 5.5 1.037523627281189 L 10.15436172485352 9.5 Z" stroke="none"/>
        <path d="M 5.5 2.075047492980957 L 1.691275596618652 9 L 9.308724403381348 9 L 5.5 2.075047492980957 M 5.5 0 L 11 10 L 0 10 L 5.5 0 Z" stroke="none" fill="#707070"/>
      </g>
    </g>
    <text id="User_input:_Select_course-2" data-name="User input: Select course" transform="translate(723 562)" fill="#FFFFFF" font-size="12" font-family="SegoeUI, Segoe UI"><tspan x="0" y="0">User input: Select course</tspan></text>
    <text id="User_Logged_In_" data-name="User Logged In?" transform="translate(1116 563)" fill="#FFFFFF" font-size="10" font-family="SegoeUI, Segoe UI"><tspan x="0" y="0">User Logged In?</tspan></text>
    <g id="Polygon_9" data-name="Polygon 9" transform="translate(1216.5 557.5) rotate(90)" fill="#fff">
      <path d="M 10.15436172485352 9.5 L 0.8456379771232605 9.5 L 5.5 1.037523627281189 L 10.15436172485352 9.5 Z" stroke="none"/>
      <path d="M 5.5 2.075047492980957 L 1.691275596618652 9 L 9.308724403381348 9 L 5.5 2.075047492980957 M 5.5 0 L 11 10 L 0 10 L 5.5 0 Z" stroke="none" fill="#707070"/>
    </g>
    <g id="Polygon_10" data-name="Polygon 10" transform="translate(1409.5 568.5) rotate(-90)" fill="#fff">
      <path d="M 10.15436172485352 9.5 L 0.8456379771232605 9.5 L 5.5 1.037523627281189 L 10.15436172485352 9.5 Z" stroke="none"/>
      <path d="M 5.5 2.075047492980957 L 1.691275596618652 9 L 9.308724403381348 9 L 5.5 2.075047492980957 M 5.5 0 L 11 10 L 0 10 L 5.5 0 Z" stroke="none" fill="#707070"/>
    </g>
    <line id="Line_35" data-name="Line 35" y2="454" transform="translate(253 367)" fill="none" stroke="#FFFFFF" stroke-linecap="square" stroke-width="1"/>
    <line id="Line_36" data-name="Line 36" x1="1059" transform="translate(253 821)" fill="none" stroke="#FFFFFF" stroke-linecap="square" stroke-width="1"/>
    <line id="Line_37" data-name="Line 37" y1="217.5" transform="translate(1312.5 603.5)" fill="none" stroke="#FFFFFF" stroke-linecap="square" stroke-width="1"/>
    <g id="Polygon_11" data-name="Polygon 11" transform="translate(1307.5 598.5)" fill="#fff">
      <path d="M 10.15436172485352 9.5 L 0.8456379771232605 9.5 L 5.5 1.037523627281189 L 10.15436172485352 9.5 Z" stroke="none"/>
      <path d="M 5.5 2.075047492980957 L 1.691275596618652 9 L 9.308724403381348 9 L 5.5 2.075047492980957 M 5.5 0 L 11 10 L 0 10 L 5.5 0 Z" stroke="none" fill="#707070"/>
    </g>
    <line id="Line_38" data-name="Line 38" x2="951" transform="translate(618 224)" fill="none" stroke="#FFFFFF" stroke-width="1"/>
    <g id="Polygon_12" data-name="Polygon 12" transform="translate(623.5 351.5) rotate(180)" fill="#fff">
      <path d="M 10.15436172485352 9.5 L 0.8456379771232605 9.5 L 5.5 1.037523627281189 L 10.15436172485352 9.5 Z" stroke="none"/>
      <path d="M 5.5 2.075047492980957 L 1.691275596618652 9 L 9.308724403381348 9 L 5.5 2.075047492980957 M 5.5 0 L 11 10 L 0 10 L 5.5 0 Z" stroke="none" fill="#707070"/>
    </g>
  </g>
</svg>
